<svg width="438" height="438" viewBox="0 0 438 438" fill="none" xmlns="http://www.w3.org/2000/svg">
<g opacity="0.1">
<path d="M271.143 219C271.143 247.798 247.798 271.143 219 271.143C190.202 271.143 166.857 247.798 166.857 219C166.857 190.202 190.202 166.857 219 166.857C247.798 166.857 271.143 190.202 271.143 219Z" fill="white"/>
<path fill-rule="evenodd" clip-rule="evenodd" d="M219 438C329.328 438 420.601 356.416 435.782 250.286H307.516C294.632 286.74 259.866 312.857 219 312.857C178.134 312.857 143.368 286.74 130.484 250.286H2.2178C17.3986 356.416 108.672 438 219 438ZM130.484 187.714H2.2178C17.3986 81.5839 108.672 0 219 0C329.328 0 420.601 81.5839 435.782 187.714H307.516C294.632 151.26 259.866 125.143 219 125.143C178.134 125.143 143.368 151.26 130.484 187.714ZM271.143 219C271.143 247.798 247.798 271.143 219 271.143C190.202 271.143 166.857 247.798 166.857 219C166.857 190.202 190.202 166.857 219 166.857C247.798 166.857 271.143 190.202 271.143 219Z" fill="white"/>
</g>
</svg>
